<?xml version="1.0" encoding="utf-8"?>
<!-- Generator: Adobe Illustrator 22.1.0, SVG Export Plug-In . SVG Version: 6.00 Build 0)  -->
<svg version="1.1" id="art" xmlns="http://www.w3.org/2000/svg" xmlns:xlink="http://www.w3.org/1999/xlink" x="0px" y="0px"
	 viewBox="0 0 664.7 139.8" style="enable-background:new 0 0 664.7 139.8;" xml:space="preserve">
<style type="text/css">
	.st0{fill:#2F2F2F;}
</style>
<g>
	<path class="st0" d="M210.9,117.6c0,0-2.6-0.4-17.2-0.2c-24.4,0.2-100.7-2-100.7-2c-2.3,0-4.1,1.9-4.1,4.2c0,0.7,0.2,1.3,0.4,1.9
		c0.5,1.4,1.6,4.1,3.6,4.1c2.2,0,4.5-1,8.4-1.5c1.8-0.2,3.9-0.5,6-0.8c18.3-0.6,48.6-1.6,56.8-1.4c11.9,0.3,46.8-0.1,46.8-0.1
		c1.3,0,2.3-1,2.3-2.1C213.2,118.6,212.2,117.6,210.9,117.6z"/>
	<path class="st0" d="M606.9,119.7c0-2.1-1.4-3.8-3.3-4.2c-0.2-0.1-2.4,0-2.6,0c-11,0.8-123.4,2.1-131.6,2.1c-8.5,0-212.7,0-212.7,0
		c-1.3,0-2.3,1-2.3,2.1c0,1.2,1,2.1,2.3,2.1c0,0,161.8,0.4,174.4,0c10.5-0.4,123.2,1.3,160.1,1.9c1.1,0.2,2.2,0.3,3.3,0.4
		c3.8,0.5,6.2,1.5,8.4,1.5c1.9,0,3.1-2.6,3.6-4C606.7,121,606.9,120.4,606.9,119.7z"/>
</g>
<path class="st0" d="M356.4,63.8c-0.6-0.9-1.5-1.4-2.5-1.5c-1-0.2-11.7-0.5-19.4-0.2c-7.8,0.2-10.5,1.6-11.2,2c-1,0.5-2,1.5-1.6,3
	c0.6,2.5,2.4,2.1,3.1,1.9c1.8-0.5,3.4-0.4,5.2,1.2c2.4,2.2,0,12-8.5,15.5c-5.5-6.8-7.6-14.2-6.6-22.4c6.9-4.3,18-7.8,22.2-12.1
	c4.5-4.6,4.9-8.3,2.3-11.8c-3.1-4.1-12.8-3.4-18.9,1.4c-4.8,3.8-10.3,12.2-11.2,19.1c-8.7,3.9-23.7,10.9-23,24.5
	c0.6,11.4,17.5,15.8,34.2,7.6c3.5,2.1,9.3,4.6,11.9,4.6c0.7,0,1.9-0.9,2.1-1.6c0.2-0.6-0.2-1.4-0.7-1.6c-0.7-0.2-5.2-1.1-8.3-3.9
	c5.1-2.9,17-13.2,11.5-21.1c9.2-1.3,15.4-2,18.8-2.2C356.4,66.1,357,64.8,356.4,63.8z M324.5,44.6c3.1-2.1,6.2-3.4,8-1.6
	c1.3,1.3,0.1,4.8-4,7.4c-3.8,2.4-7.7,3.9-12.1,6C317.3,52.7,321.9,46.5,324.5,44.6z M295.8,85.9c-2.8-6.7,4.1-16.3,12.8-20.3
	c0.4,8,1.8,14.9,8.5,22.6C307.5,92.4,298.2,91.5,295.8,85.9z"/>
<g>
	<path class="st0" d="M595.9,47.5c3.3,0,6-2.7,6-6s-2.7-6-6-6s-6,2.7-6,6S592.6,47.5,595.9,47.5z"/>
	<path class="st0" d="M662,0.5c-4.6-3-20,7.9-29.8,26.8c-5.5,10.5-7.6,17.6-9.6,28c-3.8-6.9-20.5-2.8-35.5,13.9
		c-12.8,11.1-30.7,21.4-33.3,18.2c-2.3-2.9,7.9-15,12.8-19.3c4-3.5,12.7-10,14.7-11c0.5-0.2,2.2-2.4,0.1-5.1c-2.4-3-5.4-2.2-6.4-1.5
		c-0.8,0.6-6.4,4.8-13.7,11.8c-7.2,7-12.3,6.7-15.1,4.3c1.6-1.7,3.3-4,4.3-6.4c1.5-3.6,1.9-8-1.2-9.3c-3.2-1.3-6.6,1.7-8.5,6.3
		c-1.7,3.9-1.4,6.8-0.2,8.9c-5.2,6.1-11.3,11.3-14.4,13.9c-3.5,2.8-9.9,6.9-12.9,4.9c-3.6-2.5,3.7-13,5.8-15.8
		c2.6-3.2,7.5-9,9.2-9.7c0.4-0.2,1.1-2.1-0.1-4c-1.9-3.2-5.4-3.1-7.4-1.5c-1.7,1.4-4.5,6.4-9.7,12.7C500.7,79.4,487.2,89,484.2,87
		c-2.5-1.7,2.1-9,4.3-11.3c2.1-2.1,4.6-4.6,4.8-4.8c0.2-0.2,0.2-1.8-1.2-3.1c-1.4-1.3-3.4-1.1-6.3,1.1s-6.2,5.5-10.3,8.4
		c-5.4,3.9-17,10.8-19.2,7c-1.5-2.4,3.5-11,12.3-18.2c7.7-6.2,15.2-8.6,16.9-6.9c0.6,0.6,0.6,1.3,0.5,1.5c-0.1,0.3,0.2,0.7,0.7,0.9
		c1.1,0.2,2.7-0.5,4.3-2.5c1.2-1.5,1.5-3.9,0.5-5.6c-3.5-5.8-16.9-1.2-27.9,7.6c-14.2,11.4-19,24.5-14.5,28.8
		c4.6,4.4,18.6,1.1,31.7-11.9c-4.1,5.7-4.4,12-2.1,13.6c5,3.4,16-1.4,28.2-13.8c-1.4,4.3-2.7,10.1,0.3,12.8c6.2,5.5,21.4-2.8,36-21
		c1.9,1.7,5.8,3.9,11,1.1c-2.2,2.6-11,16.3-7.3,20.7c5,5.9,20.7-1.6,33.7-12.2c-2,4-2.4,9.6,0.6,11.8c7.8,5.7,24-2,35.9-12.2
		c0.2-0.2,3.3-2.5,3.3-2.5v1c-0.1,9.4,1.2,18.6,6,24.7c4.8,6,12.6,4.2,13.9,1.4l0,0c0.3-0.6,0-0.9-0.4-0.9s0.1,0,0.1,0
		c-0.3-0.1-0.5,0-0.7,0c-3.1,0.4-6.2-0.1-8.9-3.7c-2.2-2.8-3.7-7.7-4.7-12.9c-0.9-4.6-1.2-10.6-1-12.6c0-0.4,0.1-0.7,0.1-0.7
		s20.4-19.6,30.3-37.1C665.4,17.5,666.9,3.6,662,0.5z M605.8,81.3c-10.2,6.6-16.8,7.6-18.2,5.2c-1.7-2.8,2.8-12.6,13.2-20.7
		c8.9-6.9,17.5-9.1,19.7-5.2c0.1,0.1,0.6,1.2,0.7,2.2c0.1,0.4,0.1,0.9,0.1,1.4c-0.2,2-0.4,4.3-0.5,5.8l-0.9,0.8
		C619.9,70.8,611.7,77.5,605.8,81.3z M638.3,26.5c7.8-12.7,13.6-17.6,16.1-16.5c3.2,1.4,2.4,8.5-7.9,26.8
		c-6.1,10.9-11.1,17.6-15.1,22.5c-2.3,2.9-6.1,7.4-6.1,7.4s0.7-6.9,2.5-13.9C630.2,43.8,634,33.4,638.3,26.5z"/>
</g>
<path class="st0" d="M280.3,73.4c-5.8,1.7-9.7,3.5-15.8,6.9c1.9-7.5,3-10.4,5.8-14.6c1.3-1.9,3.6-4,5.4-6.1c2.4-2.8,4.2-5.4,2.7-6.9
	c-1.5-1.6-7.2,1.2-9.8,4.6c-2.6,3.4-3.4,5.3-4.1,6.9c-10.3,13.5-26.6,23.3-29.1,18.9c-2-3.6,2.6-10.8,6.5-15.5
	c3.2-3.8,9.1-9.4,10.9-11c0.4-0.4,2.1-2.3-0.2-4.4c-2.3-2-5.2-1-6.1-0.3c-0.9,0.8-10,11.5-16.8,19.5c-7.4,8.8-18.2,14.9-19.8,13
	c-2-2.3,1.4-7.5,3.3-10.7c2.6-4.3,6.9-10.7,3.6-16.6c-1.5-2.7-4.1-6.1-2.9-7.9c2.5-3.8,3.7-5,3.5-6.5s-1.1-2.7-1.6-3
	s-1.2-0.3-1.6,0.2c-3.1,4.2-14.4,19.5-22.4,29.3c-8.5,10.5-15,16.9-16.9,14.3c-1.5-2.1-0.1-7,2.4-12.3c0.7-1.2,1.5-2.6,2.1-4l0,0
	l0,0c1.4-3.3,2.2-6.9,0.2-10.3c-1.5-2.7-4.1-6.1-2.9-7.9c2.5-3.8,3.7-5,3.5-6.5s-1.1-2.7-1.6-3s-1.2-0.3-1.6,0.2
	c-3.1,4.2-14.4,19.5-22.4,29.3c-1.7,2.1-3.3,4-4.8,5.7c-4.7,4.7-8.5,7.2-9.6,5.7c-1.1-1.4,0.8-6.2,1.7-8c0.8-1.6,4.7-7.2,5-7.6
	c0.2-0.4,0.5-1.2,0-2c-0.5-0.9-2-1.9-4.3-1.6c-2,0.3-7.9,7.4-9,8.5c-5.7,5.9-16.7,17.7-23.3,15.5c-5-1.7-0.2-14.6,18.8-23.6
	c3-1.4,6.6-2.3,8.9-3c0.8-0.2,2.2-2.1,2.4-3.3c0.4-1.7-0.2-2.9-3.5-3.6c-1.6-0.3-4.8-0.8-8.5-0.7c-11.4,0.4-24.5,1.6-24.5,1.6
	s12.1-22,19.5-33.5c0.4-0.6,0.7-1.2-0.3-2.2c-2.3-2.5-9.1-0.1-11.5,1.4c-0.8,0.5-1.4,2-1.3,3c0.2,1.1-1.1,3.3-1.9,4.7
	c-3,5.3-14.4,27.9-14.4,27.9l-31.3,2.9c0,0,15.2-33.2,21.7-43.3c1.1-1.8,0.8-4.4-2.1-4.7c-2.8-0.3-5.6,0.5-7.2,1.1
	c-1.5,0.6-3.6,1.8-3.1,3.6c0.5,1.7,0,2.1-0.9,3.8c-1,1.7-1.9,2.8-5.7,3.8C44.7,26.5,31.2,30.8,16.2,42C2,52.6-5.5,71.7,4.7,83.8
	c7.5,8.9,18.4,6.3,20.6,3.6c0.6-0.7,0-1.5-0.6-1.3c-2.5,0.4-7.4-0.7-11.7-7.2c-6.9-10.5-2.5-23.1,8.9-32.6
	c12.6-10.5,22.7-14.3,44.9-20c-2.6,6.5-12.6,31.4-12.6,31.4s-20,1.8-21.8,2.5c-1.8,0.6-2.6,2.2-2,3.7c0.7,1.7,1.5,4.8,3.4,5.3
	c1.1,0.3,2.1-0.2,2.2-0.7c0.1-0.4,1.1-0.8,1.7-1c4.4-1,13.4-2.3,13.4-2.3s-9,23.2-15,39.1c-0.4,0.9,0.5,1.8,1.7,1.3
	c1.3-0.5,4.5-2.2,5.2-2.8c0.3-0.3,0.8-0.7,1-1.5c0.7-2.3,15.4-37.2,15.4-37.2l31.5-3.6c0,0-12,27.1-17.9,42.3
	c-0.5,1.4,0.2,2.1,1.2,1.8s5.1-1.9,5.7-2.5c0.3-0.4,0.7-0.8,1-1.7c2.3-5.4,19.5-41.2,19.5-41.2s14.4-2,24.6-2.7
	c-24,10.1-29.1,28.6-22,33.1c3.7,2.4,9.2,2.5,15.8-1c4.5-2.4,9.5-6.4,14.3-12.1c-0.5,2.2-1.7,10.6,3.1,11.6
	c8.9,1.9,18.4-9.5,35-32.4c0.3-0.3,2.2,2.2,2.8,3.9c0.5,1.2,1.4,3.4,0,6.2c-4.2,7.5-10.6,18.6-7.1,23.3c3.1,4.1,11.1,3.9,24.8-13
	c7.1-8.8,16.1-19.8,16.6-20.4c0.3-0.3,1.7,2.2,2.4,4c0.6,1.4,0.3,3.2-0.3,4.4c-1.5,3.1-2.5,5.1-5.2,9.8c-3.6,6.3-5,12.1-2.7,15.4
	c2.7,3.8,13.9,2.5,27.3-12.1c-2,4.4-2.4,9,0,11.4c3.8,3.6,15.6,1.1,30.2-13.6c-1.8,4.9-2,5.4-3.3,8.7h0.1
	c-7.5,4.7-18.6,12.8-26,20.1c-12.2,12.1-20,28.7-14.3,34.1c6.3,5.9,23.3-1.8,35.3-23.7c5.9-10.9,8.4-21,10.2-27.2
	c5.5-3.1,9.9-5.4,14.3-6.6c0.9-0.2,1.3-0.1,2.1-0.5c1.5-0.8,3.6-3.6,3.7-5C282.5,73.3,281.6,73,280.3,73.4z M243.9,114.4
	c-10,16.2-19.9,21.2-22.5,17.7c-2.7-3.6,3.3-15.3,12.1-24.3c6.8-6.9,14.7-13.1,21.3-17.4C252,97.5,250.6,103.5,243.9,114.4z"/>
<g>
	<path class="st0" d="M419.1,16.6c-2-0.9-5.5-2.1-7-2.5c-2.6-0.7-10.7-2.1-15.3-2.1l-1.9-0.1c-8.6,0-15.8,0.9-22.6,3.4
		c-22.3,8.1-25.9,23.7-5.9,31.9c5,2,10.6,3.9,15.5,5.6h0.1l-0.2,0.3c-2.8,3.9-15.2,23.5-21.4,35c-7.5,2.8-11.1,10.5-7.2,13.5
		s7.6-2.5,11.1-8.9c5.7-1.8,16.6-0.2,23.3,1.2c4.6,1,9,1.6,13.1,1.8c0.4,0,0.9,0,1.3,0c3,0.1,5.9,0.1,8.7-0.3
		C456.1,89.6,462.6,36.5,419.1,16.6z M409.5,88.3c-4.5,1-9.5,1.2-14.9,0.9c-1.5-0.1-3.1-0.3-4.7-0.5c-4.2-0.6-16.1-3.1-21.7-2.4
		c4.1-6.8,13.1-19.2,21.2-30.6c3,1,7.5,2.7,10.3,4.2c8.6,4.5,5.3,10.4,0.7,12.8c-1.6,0.8-3,0.9-3.7,1c-0.4,0.1-0.5,0.5,0.1,0.8
		c1.2,0.7,4.1,1.3,6.8,1c4.2-0.4,7.6-3.5,8.6-7.4l0.3-2.1c0.1-4-2.7-8.5-10-11.6c-3.5-1.5-6.2-2.4-9.7-3.7c3.9-5,7.8-9.2,9.8-11.3
		s3.6-3,4.3-3.4c0.5-0.3,1.7-3.8-1.7-5.5c-2.8-1.4-5.4-0.4-6.6,0.8c-1.2,1.1-8.2,9.4-13.4,17c-0.1,0-0.2-0.1-0.3-0.1l0,0
		c-3.5-1.3-7.5-2.8-11.4-4.6c-15.4-7.1-14.2-16.7-0.9-22.7c5.6-2.5,13.5-3.7,20.7-4c4.1,0,8.6,0.6,13.2,1.5c3.7,0.8,7.1,2.3,8,2.6
		C449.6,37.2,445.8,80.1,409.5,88.3z"/>
</g>
</svg>
