<?xml version="1.0" encoding="utf-8"?>
<!-- Generator: Adobe Illustrator 22.1.0, SVG Export Plug-In . SVG Version: 6.00 Build 0)  -->
<svg version="1.1" id="Layer_1" xmlns="http://www.w3.org/2000/svg" xmlns:xlink="http://www.w3.org/1999/xlink" x="0px" y="0px"
	 viewBox="0 0 297 108" style="enable-background:new 0 0 297 108;" xml:space="preserve">
<style type="text/css">
	.st0{fill:none;}
</style>
<path d="M50.6,51.1v2.8c0,17.3,5.1,27.2,14.1,27.2s14.1-9.9,14.1-27.2v-2.8c0-17.3-5.1-27.1-14.1-27.1
	C55.7,23.9,50.6,33.8,50.6,51.1z M71.9,51.1v2.8c0,12.4-1.2,20.6-7.2,20.6c-0.3,0-0.6-0.3-0.6-0.6c0-0.3,0.3-0.6,0.6-0.6
	c5,0,6-7.8,6-19.4v-2.8c0-11.7-1-19.4-6-19.4c-0.3,0-0.6-0.3-0.6-0.6c0-0.3,0.3-0.6,0.6-0.6C70.6,30.5,71.9,38.7,71.9,51.1z
	 M60.6,53.9v-2.8c0-11.9,1.3-17.4,4-17.4c2.7,0,4,5.5,4,17.4v2.8c0,11.9-1.3,17.4-4,17.4S60.6,65.8,60.6,53.9z M65.2,26.5
	c0,0.3-0.3,0.6-0.6,0.6c-9.8,0-10.9,16.7-10.9,23.9v2.8c0,7.2,1.1,23.9,10.9,23.9c0.3,0,0.6,0.3,0.6,0.6c0,0.3-0.3,0.6-0.6,0.6
	c-10.9,0-12.1-17.6-12.1-25.1V51c0-7.6,1.2-25.1,12.1-25.1C65,25.9,65.2,26.2,65.2,26.5z"/>
<path d="M97.4,36.1c1.5,0,2.8,0.5,4.7,1.6l0.8,0.5V27.7l-0.3-0.1c-2-0.9-3.5-1.2-6.1-1.2c-9.8,0-15.5,9.4-15.5,25.7v1.8
	c0,22.1,9.2,25.4,14.7,25.4c3,0,5.1-0.5,7-1.6l0.3-0.1v-9.7l-0.8,0.5c-1.6,1-3.3,1.5-4.7,1.5c-3.3,0-6.4-1.9-6.4-15.9v-2
	C91.1,37.8,94.7,36.1,97.4,36.1z M95.7,76c0.3,0,0.6,0.3,0.6,0.6c0,0.3-0.3,0.6-0.6,0.6c-8.2,0-12.7-8.3-12.7-23.4V52
	c0-7.1,1.3-23.7,13.5-23.7c0.3,0,0.6,0.3,0.6,0.6c0,0.3-0.3,0.6-0.6,0.6c-11.1,0-12.3,15.7-12.3,22.5v1.8C84.2,68.1,88.3,76,95.7,76
	z"/>
<path d="M267,38.1v-0.2c0-3.8,0.7-8.4,4.2-8.6c1.9-0.1,3.3,0.9,5.5,2.6l1.7,1.2V21.8l-1-0.6c-2-1.3-4.1-2.7-7.4-2.7
	c-7.1,0-12.9,8.9-12.9,19.9v0.2c0,7.9,2.4,12,8.6,21c4.2,6,4.9,8.2,4.9,11v0.2c0,3.2-1.5,5-4.2,5c-2.1,0-4.3-1-7.7-3.5l-0.8-0.6v13
	l0.2,0.1c3,1.9,6.1,2.8,9.3,2.8c7.6,0,13.1-7.3,13.1-17.4V70c0-7.5-1.6-11.6-8.6-21.9C267.6,41.8,267,40.9,267,38.1z M261.1,83.2
	c0,0.3-0.3,0.6-0.6,0.6c-0.3,0-0.6-0.3-0.6-0.6v-6.6c0-0.3,0.3-0.6,0.6-0.6c0.3,0,0.6,0.3,0.6,0.6V83.2z M273.8,70.8
	c0,1.6-0.3,3.1-0.9,4.3c-0.1,0.2-0.3,0.3-0.5,0.3c-0.1,0-0.2,0-0.3-0.1c-0.3-0.1-0.4-0.5-0.3-0.8c0.5-1.1,0.8-2.4,0.8-3.8v-0.2
	c0-3.6-1.2-6.3-5.2-12.1c-6.1-8.8-8.3-12.5-8.3-19.8v-0.2c0-4.7,1.2-9.4,3.3-12.8c0.2-0.3,0.5-0.4,0.8-0.2c0.3,0.2,0.4,0.5,0.2,0.8
	c-2,3.2-3.1,7.6-3.1,12.2v0.2c0,7,2.1,10.6,8.1,19.1c4.2,6.1,5.4,8.9,5.4,12.8V70.8z"/>
<path d="M27.9,70.2V70c0-7.5-1.6-11.6-8.6-21.9c-4.3-6.3-4.9-7.2-4.9-10v-0.2c0-3.8,0.7-8.4,4.2-8.6c1.9-0.1,3.3,0.9,5.5,2.6
	l1.7,1.2V21.8l-1-0.6c-2-1.3-4.1-2.7-7.4-2.7c-7.1,0-12.9,8.9-12.9,19.9v0.2c0,7.9,2.4,12,8.6,21c4.2,6,4.9,8.2,4.9,11v0.2
	c0,3.2-1.5,5-4.2,5c-2.1,0-4.3-1-7.7-3.5l-0.8-0.6v13l0.2,0.1c3,1.9,6.1,2.8,9.3,2.8C22.4,87.6,27.9,80.3,27.9,70.2z M14.8,58.5
	C8.7,49.7,6.5,46,6.5,38.7v-0.2c0-4.7,1.2-9.4,3.3-12.8c0.2-0.3,0.5-0.4,0.8-0.2c0.3,0.2,0.4,0.5,0.2,0.8c-2,3.2-3.2,7.7-3.2,12.2
	v0.2c0,7,2.1,10.6,8.1,19.1c4.2,6.1,5.4,9,5.4,12.8v0.2c0,1.6-0.3,3.1-0.9,4.4c-0.1,0.2-0.3,0.3-0.5,0.3c-0.1,0-0.2,0-0.3-0.1
	c-0.3-0.1-0.4-0.5-0.3-0.8c0.5-1.1,0.8-2.4,0.8-3.8v-0.2C20,67,18.8,64.3,14.8,58.5z M8.4,83.2c0,0.3-0.3,0.6-0.6,0.6
	s-0.6-0.3-0.6-0.6v-6.6c0-0.3,0.3-0.6,0.6-0.6s0.6,0.3,0.6,0.6V83.2z"/>
<path d="M44.2,83.1V33.7l6.4,0.6l-0.1-11.1L28,20.5v11.8l6.3,0.7v51.2L44.2,83.1z M31.2,29.9c0,0.3-0.3,0.6-0.6,0.6
	c-0.3,0-0.6-0.3-0.6-0.6v-6.5c0-0.3,0.3-0.6,0.6-0.6c0.3,0,0.6,0.3,0.6,0.6V29.9z M36.3,33.2c0-0.3,0.3-0.6,0.6-0.6s0.6,0.3,0.6,0.6
	v48c0,0.3-0.3,0.6-0.6,0.6s-0.6-0.3-0.6-0.6V33.2z"/>
<path d="M133.5,27.8l-10.8-0.3l-6.4,18.1V27.5l-9.9-0.4v51.1l9.9-0.3V64.1l1.4-3.9l5.3,17.6l10.9-0.1L125,48.9L133.5,27.8z
	 M109.6,75.6c0,0.3-0.3,0.6-0.6,0.6c-0.3,0-0.6-0.3-0.6-0.6V29.9c0-0.3,0.3-0.6,0.6-0.6c0.3,0,0.6,0.3,0.6,0.6V75.6z M116.9,53.7
	c-0.1,0.2-0.3,0.4-0.6,0.4c-0.1,0-0.1,0-0.2,0c-0.3-0.1-0.5-0.4-0.4-0.8L124,30c0.1-0.3,0.4-0.5,0.8-0.4c0.3,0.1,0.5,0.4,0.4,0.8
	L116.9,53.7z M125.5,75.1c0.1,0.3-0.1,0.6-0.4,0.7c-0.1,0-0.1,0-0.2,0c-0.3,0-0.5-0.2-0.6-0.4l-5.7-19.1c-0.1-0.3,0.1-0.6,0.4-0.7
	c0.3-0.1,0.6,0.1,0.7,0.4L125.5,75.1z"/>
<path d="M163,27.5l-4.6,16.9L154,27.7l-10.2,0.1l9.6,30v20l9.9,0.1v-20l10-30.6L163,27.5z M156.6,75.2c0,0.3-0.3,0.6-0.6,0.6
	s-0.6-0.3-0.6-0.6V57.5l-8.7-26.9c-0.1-0.3,0.1-0.6,0.4-0.8c0.3-0.1,0.6,0.1,0.7,0.4l8.7,27c0,0.1,0,0.1,0,0.2v17.8H156.6z
	 M160.4,49.7c-0.1,0.3-0.3,0.4-0.6,0.4c0,0-0.1,0-0.2,0c-0.3-0.1-0.5-0.4-0.4-0.7l5.2-19.5c0.1-0.3,0.4-0.5,0.7-0.4s0.5,0.4,0.4,0.7
	L160.4,49.7z"/>
<path d="M168.5,78.1l9.7,0.3l1.5-9.7h7.2l1.7,10.1l10,0.6l-9.8-52.7l-10.4,0.5L168.5,78.1z M189.5,68.1c0.3-0.1,0.6,0.2,0.7,0.5
	l1.3,7.6c0,0.3-0.2,0.6-0.5,0.7h-0.1c-0.3,0-0.5-0.2-0.6-0.5l-1.3-7.6C188.9,68.4,189.2,68.1,189.5,68.1z M184.5,36.9
	c0.3,0,0.6,0.2,0.7,0.5l3.5,22.1c0.1,0.3-0.2,0.6-0.5,0.7h-0.1c-0.3,0-0.5-0.2-0.6-0.5L184,37.6C183.9,37.3,184.1,37,184.5,36.9z
	 M185.5,59.6h-4.3l2.2-13.2L185.5,59.6z M180.7,29.1c0.3,0.1,0.5,0.4,0.5,0.7l-9,45.9c-0.1,0.3-0.3,0.5-0.6,0.5h-0.1
	c-0.3-0.1-0.5-0.4-0.5-0.7l9-45.9C180.1,29.3,180.4,29.1,180.7,29.1z"/>
<path d="M238.3,23c-6,0.2-8.3,0.9-8.4,1l-0.4,0.1v57.8l8.8,0.9c0.7,0.1,1.3,0.1,2,0.1c10.5,0,16.5-10,16.5-27.4v-1.9
	C256.7,35.3,249.1,22.6,238.3,23z M232.7,79.5c0,0.3-0.3,0.6-0.6,0.6s-0.6-0.3-0.6-0.6V26.1c0-0.3,0.3-0.6,0.6-0.6s0.6,0.3,0.6,0.6
	V79.5z M240,30.8c4.8,0.9,9.9,7.3,9.9,22.8v1.9c0,6.8-0.7,11.6-2.1,15c-2,4.7-5.3,5.7-7.7,5.7c-0.2,0-0.4,0-0.7,0s-0.6-0.3-0.6-0.6
	c0-0.3,0.3-0.6,0.6-0.6c0.2,0,0.4,0,0.6,0c2,0,4.8-0.9,6.6-5c1.4-3.2,2-7.9,2-14.5v-1.9c0-14.8-4.6-20.9-8.9-21.7l-0.5-0.1
	c-0.3-0.1-0.5-0.4-0.5-0.7c0.1-0.3,0.4-0.5,0.7-0.5L240,30.8z M239.4,72.9v-39c3.6,0.6,7.2,6.9,7.2,19.7v1.9
	c0,6.2-0.6,10.8-1.9,13.7c-1.1,2.5-2.6,3.7-4.7,3.7C239.8,73,239.6,73,239.4,72.9z"/>
<path d="M226.3,43.8v-0.7c0-11.1-5.5-17.7-14.8-17.7c-0.5,0-1,0-1.5,0.1l-9.7,0.6v53.3l9.9,0.7V61.3h0.8l5.9,19.1l0.1,0.3l10.9,1
	L220.4,58C223.2,55.7,226.3,51.4,226.3,43.8z M203.6,77c0,0.3-0.3,0.6-0.6,0.6s-0.6-0.3-0.6-0.6V28.6c0-0.3,0.3-0.6,0.6-0.6
	s0.6,0.3,0.6,0.6V77z M210.3,55.2V54l0,0c3,0,8.1-1.4,8.1-10.1v-0.6c0-6.8-2.4-10-7.5-10c-0.2,0-0.4,0-0.6,0c-0.4,0-0.6-0.2-0.6-0.6
	c0-0.3,0.2-0.6,0.6-0.6c0.2,0,0.5,0,0.7,0c5.8,0,8.7,3.8,8.7,11.2v0.6C219.6,54,213.1,55.1,210.3,55.2z M210.3,52V35.3
	c0.2,0,0.4,0,0.7,0c2.8,0,5.5,1,5.5,8v0.6C216.4,49.2,214.4,51.9,210.3,52z M219.3,78.9c-0.1,0-0.1,0-0.2,0c-0.3,0-0.5-0.2-0.6-0.4
	l-6.1-19.6c-0.1-0.3,0.1-0.6,0.4-0.7c0.3-0.1,0.6,0.1,0.7,0.4l6.1,19.6C219.7,78.4,219.6,78.8,219.3,78.9z"/>
<g>
	<g>
		<path d="M273.6,100.7h-0.1c-8.7-1.5-18-2.9-27.5-4.1c-0.4,0-0.6-0.4-0.6-0.8s0.4-0.6,0.8-0.6c9.5,1.2,18.8,2.6,27.6,4.1
			c0.4,0.1,0.6,0.4,0.6,0.8C274.2,100.5,273.9,100.7,273.6,100.7z"/>
	</g>
	<g>
		<path d="M11.4,100.7c-0.3,0-0.6-0.2-0.7-0.6c-0.1-0.4,0.2-0.7,0.6-0.8c8.6-1.5,17.9-2.9,27.6-4.1c0.4,0,0.7,0.2,0.8,0.6
			c0,0.4-0.2,0.7-0.6,0.8c-9.7,1.2-19,2.6-27.6,4.1C11.5,100.7,11.5,100.7,11.4,100.7z"/>
	</g>
</g>
<g>
	<path d="M89.5,12.8L89.5,12.8c-27.8-1.6-54.1-4.5-78.2-8.7c-0.4-0.1-0.6-0.4-0.6-0.8c0.1-0.4,0.4-0.6,0.8-0.6
		C35.6,7,61.9,9.9,89.6,11.5c0.4,0,0.7,0.3,0.6,0.7C90.2,12.5,89.9,12.8,89.5,12.8z"/>
</g>
<g>
	<path d="M195,12.8c-0.4,0-0.7-0.3-0.7-0.7s0.3-0.7,0.6-0.7c28.6-1.6,55-4.5,78.6-8.6c0.4-0.1,0.7,0.2,0.8,0.6
		c0.1,0.4-0.2,0.7-0.6,0.8C250.1,8.2,223.6,11.1,195,12.8L195,12.8z"/>
</g>
<g>
	<path d="M89.5,16.1L89.5,16.1c-27.8-1.6-54.1-4.5-78.2-8.7c-0.4-0.1-0.6-0.4-0.6-0.8C10.8,6.2,11.1,6,11.5,6
		c24.1,4.2,50.4,7.1,78.1,8.7c0.4,0,0.7,0.3,0.6,0.7C90.2,15.8,89.9,16.1,89.5,16.1z"/>
</g>
<g>
	<path d="M195,16c-0.4,0-0.7-0.3-0.7-0.7s0.3-0.7,0.6-0.7c28.6-1.6,55-4.5,78.6-8.6c0.4-0.1,0.7,0.2,0.8,0.6
		c0.1,0.4-0.2,0.7-0.6,0.8C250.1,11.5,223.6,14.4,195,16L195,16z"/>
</g>
<path d="M95.8,16.6l1.1-1.3c0.7,0.6,1.5,1,2.4,1c0.7,0,1.2-0.3,1.2-0.8l0,0c0-0.5-0.3-0.7-1.6-1c-1.6-0.4-2.7-0.9-2.7-2.5l0,0
	c0-1.5,1.2-2.5,2.9-2.5c1.2,0,2.2,0.4,3,1l-0.9,1.4c-0.7-0.5-1.4-0.8-2.1-0.8S98,11.4,98,11.8l0,0c0,0.5,0.4,0.7,1.8,1.1
	c1.7,0.4,2.6,1,2.6,2.5l0,0c0,1.6-1.2,2.5-3,2.5C98,17.9,96.8,17.5,95.8,16.6z"/>
<path d="M106.8,9.6h1.8v8.2h-1.8V9.6z"/>
<path d="M113.6,9.6h1.7l3.8,5v-5h1.8v8.2h-1.5l-4-5.2v5.2h-1.8V9.6z"/>
<path d="M125.4,13.7L125.4,13.7c0-2.3,1.8-4.2,4.3-4.2c1.5,0,2.5,0.5,3.2,1.3l-1.1,1.3c-0.6-0.6-1.3-0.9-2.1-0.9
	c-1.4,0-2.4,1.1-2.4,2.5l0,0c0,1.4,1,2.6,2.4,2.6c0.9,0,1.5-0.4,2.1-1l1.1,1.2c-0.8,0.9-1.8,1.5-3.4,1.5
	C127.2,17.9,125.4,16.1,125.4,13.7z"/>
<path d="M137.3,9.6h6.2v1.6h-4.4v1.7h3.9v1.6h-3.9v1.7h4.4v1.6h-6.2V9.6z"/>
<path d="M155.6,11.4l-1.4,0.3l-0.4-1.5l2.3-0.7h1.2v8.2h-1.8L155.6,11.4L155.6,11.4z"/>
<path d="M161.9,15.6L161.9,15.6c0-1,0.5-1.6,1.3-2c-0.6-0.4-1-0.9-1-1.8l0,0c0-1.3,1.1-2.2,2.9-2.2c1.7,0,2.9,1,2.9,2.2l0,0
	c0,0.9-0.4,1.4-1,1.8c0.8,0.4,1.3,1,1.3,1.9l0,0c0,1.5-1.3,2.4-3.2,2.4S161.9,17,161.9,15.6z M166.5,15.4L166.5,15.4
	c0-0.7-0.6-1-1.4-1c-0.8,0-1.4,0.4-1.4,1l0,0c0,0.6,0.5,1,1.4,1C165.9,16.4,166.5,16,166.5,15.4z M166.2,12L166.2,12
	c0-0.5-0.4-1-1.2-1c-0.7,0-1.2,0.4-1.2,0.9l0,0c0,0.6,0.5,1,1.2,1C165.8,13,166.2,12.5,166.2,12z"/>
<path d="M172.5,17l0.9-1.4c0.6,0.5,1.1,0.7,1.8,0.7c1,0,1.5-0.8,1.7-1.9c-0.4,0.3-0.9,0.6-1.7,0.6c-1.8,0-2.9-1-2.9-2.6l0,0
	c0-1.6,1.3-2.9,3.1-2.9c1.1,0,1.7,0.3,2.4,0.9c0.6,0.6,1,1.5,1,3.1l0,0c0,2.7-1.2,4.5-3.6,4.5C173.9,17.9,173.1,17.5,172.5,17z
	 M176.9,12.3L176.9,12.3c0-0.7-0.5-1.3-1.4-1.3s-1.4,0.5-1.4,1.2l0,0c0,0.7,0.5,1.2,1.4,1.2C176.4,13.5,176.9,13,176.9,12.3z"/>
<path d="M182.6,16.5l1.2-1.2c0.6,0.6,1.1,1,2,1c0.7,0,1.2-0.4,1.2-1l0,0c0-0.7-0.6-1-1.6-1h-0.7l-0.3-1.1l1.9-2h-3.2V9.6h5.5V11
	l-2.1,2c1.1,0.2,2.2,0.8,2.2,2.3l0,0c0,1.5-1.1,2.7-2.9,2.7C184.3,17.9,183.3,17.4,182.6,16.5z"/>
<g>
	<path d="M41.5,94.1L43,94l1.8,4.2l1-4.5l1.2-0.1l1.9,4.2l0.9-4.5l1.5-0.2l-1.5,6.7l-1.2,0.1l-1.9-4l-1,4.4l-1.2,0.1L41.5,94.1z"/>
	<path d="M53.2,96.1L53.2,96.1c-0.2-1.8,1.1-3.5,3.1-3.7s3.6,1.1,3.7,3l0,0c0.2,1.8-1.1,3.5-3.1,3.7C55,99.3,53.4,98,53.2,96.1z
		 M58.6,95.6L58.6,95.6c-0.1-1.1-1-2-2.1-1.9s-1.8,1.1-1.7,2.2l0,0c0.1,1.1,1,1.9,2.1,1.8C58,97.7,58.7,96.7,58.6,95.6z"/>
	<path d="M62.2,92l2.9-0.3c0.8-0.1,1.5,0.1,1.9,0.5c0.4,0.3,0.6,0.8,0.7,1.4l0,0c0.1,1-0.4,1.7-1.2,2.1l1.8,2.2L66.6,98L65,96.1l0,0
		l-1,0.2l0.2,2.1l-1.4,0.1L62.2,92z M65.3,94.9c0.7-0.1,1.1-0.5,1-1l0,0c-0.1-0.6-0.5-0.9-1.2-0.8l-1.4,0.1l0.2,1.9L65.3,94.9z"/>
	<path d="M70.1,91.3l1.4-0.1l0.4,5.2l3.2-0.2l0.1,1.3l-4.6,0.4L70.1,91.3z"/>
	<path d="M77,90.8l2.5-0.2c2-0.1,3.5,1.2,3.6,3l0,0c0.1,1.8-1.2,3.3-3.2,3.5l-2.5,0.2L77,90.8z M79.8,95.8c1.2-0.1,1.9-0.9,1.8-2.1
		l0,0c-0.1-1.1-0.9-1.9-2.1-1.8l-1,0.1l0.3,3.9L79.8,95.8z"/>
	<path d="M85,92.7c0.6-0.1,0.9-0.4,0.9-1h-0.6l-0.1-1.5l1.5-0.1l0.1,1.2c0.1,1.2-0.5,1.7-1.6,1.8L85,92.7z"/>
	<path d="M89.1,95.6l0.8-1.1c0.6,0.4,1.2,0.7,2,0.7c0.6,0,0.9-0.3,0.9-0.7l0,0c0-0.4-0.3-0.5-1.3-0.8c-1.3-0.3-2.2-0.6-2.2-1.9l0,0
		c-0.1-1.2,0.8-2,2.2-2.1c0.9,0,1.8,0.2,2.4,0.7l-0.7,1.1c-0.6-0.4-1.2-0.6-1.7-0.5c-0.5,0-0.8,0.3-0.8,0.6l0,0
		c0,0.4,0.3,0.6,1.4,0.8c1.3,0.3,2.1,0.7,2.2,1.8l0,0c0.1,1.3-0.9,2.1-2.3,2.1C90.9,96.5,89.9,96.3,89.1,95.6z"/>
	<path d="M100.3,89.5l4.9-0.2l0.1,1.3l-3.5,0.1l0.1,1.4L105,92l0.1,1.3l-3.1,0.1l0.1,2.5l-1.4,0.1L100.3,89.5z"/>
	<path d="M107.6,89.2h1.4l0.2,6.5h-1.4L107.6,89.2z"/>
	<path d="M111.8,89.1h1.3l3.1,3.9l-0.1-4h1.4l0.2,6.5h-1.2l-3.3-4l0.1,4.1h-1.4L111.8,89.1z"/>
	<path d="M120.3,88.8l4.9-0.1V90l-3.5,0.1v1.3l3.1-0.1v1.3l-3.1,0.1v1.4l3.5-0.1v1.3l-4.9,0.1V88.8z"/>
	<path d="M127.3,94.2l0.8-1c0.6,0.5,1.2,0.8,1.9,0.8c0.6,0,0.9-0.2,0.9-0.6l0,0c0-0.4-0.2-0.5-1.3-0.8c-1.3-0.3-2.2-0.7-2.2-2l0,0
		c0-1.2,0.9-2,2.2-2c0.9,0,1.8,0.3,2.4,0.8l-0.7,1.1c-0.6-0.4-1.1-0.6-1.7-0.6c-0.5,0-0.8,0.3-0.8,0.6l0,0c0,0.4,0.3,0.6,1.4,0.8
		c1.3,0.3,2.1,0.8,2.1,1.9l0,0c0,1.3-1,2-2.4,2C129.1,95.3,128.1,94.9,127.3,94.2z"/>
	<path d="M136.2,89.9h-2v-1.3h5.4v1.3h-2v5.2h-1.4V89.9z"/>
	<path d="M145.3,94.1l0.8-1c0.6,0.5,1.2,0.8,1.9,0.8c0.6,0,0.9-0.2,0.9-0.6l0,0c0-0.4-0.2-0.5-1.3-0.8c-1.3-0.3-2.1-0.7-2.1-2l0,0
		c0-1.2,1-1.9,2.3-1.9c0.9,0,1.7,0.3,2.4,0.8l-0.7,1.1c-0.6-0.4-1.1-0.6-1.7-0.6c-0.5,0-0.8,0.2-0.8,0.6l0,0c0,0.4,0.3,0.6,1.4,0.9
		c1.3,0.4,2.1,0.8,2,2l0,0c0,1.3-1,2-2.4,2C147.1,95.2,146.1,94.8,145.3,94.1z"/>
	<path d="M154.3,90h-2v-1.3l5.4,0.1v1.3h-2l-0.1,5.2h-1.4L154.3,90z"/>
	<path d="M160,88.7l4.9,0.1v1.3l-3.5-0.1v1.3l3.1,0.1v1.3l-3.1-0.1V94l3.5,0.1v1.3l-4.9-0.1V88.7z"/>
	<path d="M169.6,88.9h1.3l2.6,6.6H172l-0.5-1.5l-2.7-0.1l-0.6,1.4h-1.5L169.6,88.9z M171,92.8l-0.8-2.1l-0.9,2.1H171z"/>
	<path d="M175.9,89.2l1.4,0.1l-0.1,2.8l2.7-2.7l1.7,0.1l-2.7,2.6l2.6,3.8l-1.7-0.1l-1.9-2.8l-0.8,0.7l-0.1,2l-1.4-0.1L175.9,89.2z"
		/>
	<path d="M183,95l0.9-1c0.6,0.5,1.2,0.8,1.9,0.9c0.6,0,0.9-0.2,1-0.6l0,0c0-0.4-0.2-0.6-1.3-0.9c-1.3-0.4-2.1-0.8-2.1-2.1l0,0
		c0.1-1.2,1-1.9,2.4-1.8c0.9,0,1.7,0.4,2.4,0.9l-0.8,1c-0.6-0.4-1.1-0.7-1.7-0.7c-0.5,0-0.8,0.2-0.9,0.5l0,0c0,0.4,0.3,0.6,1.4,0.9
		c1.3,0.4,2,0.9,2,2l0,0c-0.1,1.3-1.1,2-2.5,1.9C184.8,96.1,183.8,95.7,183,95z"/>
	<path d="M198,96c-0.6,0.4-1.2,0.7-1.9,0.6c-1.2-0.1-2.1-0.8-2.1-2l0,0c0-0.8,0.5-1.4,1.4-1.7c-0.3-0.5-0.4-0.9-0.4-1.3l0,0
		c0.1-0.9,0.8-1.7,2.1-1.6c1.1,0.1,1.8,0.8,1.7,1.7l0,0c0,0.9-0.6,1.3-1.5,1.6l0.8,0.9c0.2-0.3,0.5-0.7,0.7-1.1l1,0.6
		c-0.3,0.4-0.6,0.9-0.9,1.3l0.9,1l-1.1,0.7L198,96z M197.3,95.2l-1.2-1.3c-0.4,0.2-0.6,0.5-0.6,0.8l0,0c0,0.5,0.3,0.8,0.9,0.8
		C196.7,95.5,197,95.4,197.3,95.2z M197.6,91.8L197.6,91.8c0-0.4-0.2-0.6-0.6-0.7c-0.4,0-0.6,0.2-0.7,0.6l0,0c0,0.3,0.1,0.5,0.3,0.8
		C197.2,92.4,197.5,92.2,197.6,91.8z"/>
	<path d="M205.8,93.9L205.8,93.9c0.1-1.9,1.6-3.3,3.6-3.1c1.2,0.1,1.9,0.5,2.5,1.2l-1,1c-0.5-0.5-1-0.8-1.6-0.8
		c-1.1-0.1-1.9,0.8-2,1.9l0,0c-0.1,1.1,0.6,2.1,1.7,2.2c0.7,0.1,1.2-0.2,1.8-0.6l0.8,1c-0.7,0.7-1.5,1.1-2.7,1
		C207,97.4,205.7,95.8,205.8,93.9z"/>
	<path d="M214.3,91.3l1.4,0.1l-0.2,2.6l2.6,0.2l0.2-2.6l1.4,0.1l-0.5,6.5l-1.4-0.1l0.2-2.6l-2.6-0.2l-0.2,2.6l-1.4-0.1L214.3,91.3z"
		/>
	<path d="M222,95.2L222,95.2c0.2-1.9,1.8-3.2,3.7-3c2,0.2,3.3,1.8,3.1,3.6l0,0c-0.2,1.8-1.8,3.2-3.7,3C223.1,98.6,221.8,97,222,95.2
		z M227.3,95.7L227.3,95.7c0.1-1.1-0.6-2.1-1.8-2.2c-1.1-0.1-2,0.7-2.1,1.8l0,0c-0.1,1.1,0.6,2.1,1.8,2.2S227.2,96.8,227.3,95.7z"/>
	<path d="M231.6,92.8l2.6,0.3c1.5,0.2,2.4,1.2,2.2,2.5l0,0c-0.2,1.5-1.4,2.1-2.8,2l-1.1-0.1l-0.2,1.9l-1.4-0.1L231.6,92.8z
		 M233.8,96.3c0.7,0.1,1.2-0.3,1.2-0.9l0,0c0.1-0.6-0.3-1-1-1.1l-1.1-0.1l-0.2,2L233.8,96.3z"/>
	<path d="M237.9,99l1-0.9c0.5,0.5,1.1,0.9,1.8,1c0.6,0.1,1-0.1,1-0.5l0,0c0-0.4-0.2-0.6-1.2-1c-1.3-0.5-2.1-0.9-1.9-2.2l0,0
		c0.1-1.2,1.2-1.8,2.5-1.7c0.9,0.1,1.7,0.5,2.3,1.1l-0.9,1c-0.5-0.5-1.1-0.8-1.6-0.8c-0.5-0.1-0.9,0.2-0.9,0.5l0,0
		c0,0.4,0.2,0.6,1.3,1c1.3,0.5,1.9,1,1.8,2.2l0,0c-0.1,1.3-1.2,1.9-2.6,1.7C239.5,100.3,238.6,99.8,237.9,99z"/>
</g>
<g>
	<path d="M273.6,104h-0.1c-9-1.6-18.5-3-28.2-4.2c-0.4,0-0.6-0.4-0.6-0.8s0.4-0.6,0.8-0.6c9.7,1.2,19.2,2.6,28.3,4.2
		c0.4,0.1,0.6,0.4,0.6,0.8C274.2,103.7,273.9,104,273.6,104z"/>
</g>
<g>
	<path d="M11.4,104c-0.3,0-0.6-0.2-0.7-0.6c-0.1-0.4,0.2-0.7,0.6-0.8c8.9-1.5,18.4-2.9,28.3-4.2c0.4,0,0.7,0.2,0.8,0.6
		c0,0.4-0.2,0.7-0.6,0.8c-9.9,1.2-19.4,2.6-28.2,4.1C11.5,104,11.5,104,11.4,104z"/>
</g>
<rect class="st0" width="297" height="108"/>
<g>
	<path d="M292.9,25.2c0,3.2-2.5,5.7-5.8,5.7c-3.2,0-5.8-2.5-5.8-5.7c0-3.1,2.6-5.7,5.8-5.7C290.3,19.6,292.9,22.1,292.9,25.2z
		 M282.7,25.2c0,2.5,1.9,4.5,4.4,4.5c2.5,0,4.3-2,4.3-4.5c0-2.5-1.8-4.6-4.4-4.6C284.5,20.7,282.7,22.8,282.7,25.2z M286.2,28.2
		h-1.3v-5.7c0.5-0.1,1.2-0.2,2.2-0.2c1.1,0,1.6,0.2,2,0.4c0.3,0.2,0.6,0.7,0.6,1.2c0,0.6-0.5,1.1-1.2,1.3v0.1c0.6,0.2,0.9,0.6,1,1.4
		c0.2,0.9,0.3,1.2,0.4,1.4h-1.4c-0.2-0.2-0.3-0.7-0.4-1.4c-0.1-0.6-0.4-0.9-1.2-0.9h-0.6V28.2z M286.2,25h0.6c0.7,0,1.3-0.2,1.3-0.8
		c0-0.5-0.4-0.9-1.2-0.9c-0.3,0-0.6,0-0.7,0.1V25z"/>
</g>
</svg>
